# xmcd
#
# Track frame offsets:
#	150
#	30484
#	63989
#	93557
#	126778
#	145776
#	184794
#
# Disc length: 2723 seconds
#
# Revision: 1
# Processed by: cddbd v1.5.2PL0 Copyright (c) Steve Scherf et al.
# Submitted via: audiograbber 1.83.01
#
DISCID=5a0aa107
DTITLE=www.stepstone.de - Erfolgreich bewerben - Karrieretipps als Hoerbuch
DYEAR=2008
DGENRE=
TTITLE0=Bewerbungsschreiben - Diese Huerden muessen Sie nehmen
TTITLE1=Lebenslauf - Auf die wesentlichen Inhalte konzentrieren
TTITLE2=Bewerbung per eMail - Nicht an Formfehlern scheitern
TTITLE3=Vorstellungsgespraech I - Die richtige Vorbereitung zaehlt
TTITLE4=Vorstellungsgespraech II - Die peinlichsten Ausrutscher vermeiden
TTITLE5=Vorstellungsgespraech III - Diese Fragen kommen bestimmt
TTITLE6=Vor den Personalchefs glaenzen
EXTD=
EXTT0=
EXTT1=
EXTT2=
EXTT3=
EXTT4=
EXTT5=
EXTT6=
PLAYORDER=
